<svg width="24" height="10" viewBox="0 0 24 10" fill="none" xmlns="http://www.w3.org/2000/svg">
<g clip-path="url(#clip0_0_412)">
<path d="M15.2469 16.2502H8.75659V4.58618H15.247L15.2469 16.2502Z" fill="#FF5F00"/>
<path d="M9.168 10.418C9.168 8.05201 10.2758 5.94433 12.001 4.58605C10.6951 3.55638 9.08002 2.99755 7.41708 3.00001C3.32064 3.00001 0 6.32113 0 10.418C0 14.515 3.32064 17.8361 7.41708 17.8361C9.08007 17.8386 10.6952 17.2797 12.0011 16.25C10.2761 14.892 9.168 12.7842 9.168 10.418Z" fill="#EB001B"/>
<path d="M24.003 10.4183C24.003 14.5152 20.6824 17.8363 16.5859 17.8363C14.9228 17.8388 13.3075 17.28 12.0013 16.2503C13.7269 14.892 14.8348 12.7845 14.8348 10.4183C14.8348 8.05213 13.7269 5.94457 12.0013 4.58629C13.3074 3.55666 14.9227 2.99784 16.5858 3.00025C20.6823 3.00025 24.0029 6.32137 24.0029 10.4183" fill="#F79E1B"/>
</g>
<defs>
<clipPath id="clip0_0_412">
<rect width="24" height="24" fill="white"/>
</clipPath>
</defs>
</svg>
